<?xml version="1.0" standalone="no"?>
<!DOCTYPE svg PUBLIC "-//W3C//DTD SVG 20010904//EN"
 "http://www.w3.org/TR/2001/REC-SVG-20010904/DTD/svg10.dtd">
<svg version="1.0" xmlns="http://www.w3.org/2000/svg"
 width="3380.000000pt" height="3543.000000pt" viewBox="0 0 3380.000000 3543.000000"
 preserveAspectRatio="xMidYMid meet">

<g transform="translate(0.000000,3543.000000) scale(0.100000,-0.100000)"
fill="#000000" stroke="none">
<path d="M4830 33802 l0 -1629 98 -6 c53 -4 183 -7 287 -7 218 0 560 -13 920
-35 2516 -155 4977 -763 7265 -1795 3030 -1366 5683 -3432 7772 -6051 2133
-2675 3579 -5849 4192 -9204 211 -1155 315 -2206 342 -3473 l7 -312 1628 0
1629 0 0 12070 0 12070 -12070 0 -12070 0 0 -1628z"/>
<path d="M4830 26952 l0 -1740 218 -6 c530 -15 899 -39 1297 -82 1475 -160
2859 -539 4240 -1159 209 -94 783 -384 1005 -508 3687 -2056 6253 -5672 6959
-9807 116 -678 179 -1349 197 -2082 l7 -278 1739 0 1738 0 0 118 c0 159 -18
678 -30 887 -129 2178 -630 4212 -1531 6205 -126 280 -451 923 -610 1210 -592
1065 -1281 2049 -2073 2965 -533 615 -1160 1243 -1781 1780 -880 762 -1917
1487 -2935 2052 -2228 1236 -4686 1963 -7230 2137 -247 17 -605 33 -962 41
l-248 6 0 -1739z"/>
<path d="M4830 19991 l0 -1741 63 0 c117 0 462 -20 617 -35 1350 -134 2614
-649 3671 -1497 348 -278 724 -649 1016 -1000 718 -861 1238 -1953 1457 -3058
81 -406 136 -919 136 -1267 l0 -103 1742 0 1741 0 -7 258 c-44 1605 -431 3126
-1150 4517 -1442 2790 -4054 4788 -7106 5435 -631 134 -1235 203 -1967 226
l-213 7 0 -1742z"/>
<path d="M4830 13031 l0 -1741 1742 0 1741 0 -7 155 c-45 1044 -552 2003
-1394 2633 -565 422 -1213 652 -1944 688 l-138 7 0 -1742z"/>
<path d="M33230 6514 c-260 -43 -1282 -190 -1674 -240 l-300 -39 365 -6 c415
-7 464 -14 612 -91 241 -125 337 -320 337 -685 l0 -162 -1132 -4 c-1113 -4
-1135 -4 -1247 -25 -287 -55 -528 -172 -707 -344 -144 -138 -232 -269 -305
-457 -161 -411 -137 -946 58 -1325 184 -355 491 -574 924 -658 l114 -22 1763
-3 1762 -4 0 1554 c0 986 -4 1601 -10 1682 -26 314 -107 557 -265 795 -35 53
-52 70 -68 69 -12 -1 -114 -17 -227 -35z m-660 -2649 l0 -475 -809 0 c-499 0
-849 4 -912 11 -289 29 -437 151 -471 387 -35 240 69 434 272 508 113 41 152
42 1053 43 l867 1 0 -475z"/>
<path d="M486 6449 c-189 -230 -335 -543 -410 -881 -53 -240 -70 -415 -70
-743 -1 -318 8 -430 50 -665 161 -887 697 -1454 1554 -1644 267 -59 269 -59
1238 -63 l892 -4 0 -945 0 -944 610 0 610 0 0 2703 0 2703 -177 18 c-98 9
-368 37 -600 61 -231 25 -426 45 -432 45 -8 0 -11 -375 -11 -1326 l0 -1325
-727 4 c-780 4 -775 4 -943 58 -305 97 -552 348 -673 684 -120 336 -127 853
-16 1201 98 309 292 550 541 675 194 98 323 119 734 120 l299 1 -415 53 c-679
87 -1490 201 -1947 274 l-52 8 -55 -68z"/>
<path d="M28545 5939 c-99 -10 -340 -32 -535 -49 -195 -16 -374 -33 -396 -36
l-42 -5 9 -37 c5 -20 9 -157 9 -304 l0 -268 615 0 615 0 0 360 0 360 -47 -1
c-27 -1 -129 -10 -228 -20z"/>
<path d="M5812 4803 c4 -1070 4 -1090 26 -1198 56 -284 163 -486 367 -691 111
-111 258 -220 384 -283 155 -78 395 -150 571 -171 54 -6 623 -10 1577 -10
l1493 0 0 1569 0 1568 -147 7 c-82 4 -344 18 -583 32 -239 13 -450 24 -467 24
l-33 0 0 -1105 0 -1105 -653 0 c-377 0 -688 4 -737 10 -232 28 -409 144 -494
324 -74 156 -70 98 -74 1107 l-3 905 -162 13 c-313 24 -992 80 -1030 86 l-38
5 3 -1087z"/>
<path d="M26305 5753 c-99 -7 -364 -26 -590 -41 l-410 -28 -3 -1617 -2 -1617
610 0 610 0 0 1660 c0 1575 -1 1660 -17 1659 -10 -1 -99 -8 -198 -16z"/>
<path d="M11080 4001 l0 -1551 610 0 610 0 0 1524 0 1524 -82 6 c-46 3 -288
12 -538 21 -250 8 -488 18 -527 21 l-73 6 0 -1551z"/>
<path d="M21345 5499 c-126 -5 -364 -12 -527 -17 -164 -5 -301 -11 -304 -15
-4 -3 -14 -61 -24 -129 -81 -553 -27 -1181 139 -1621 239 -635 732 -1048 1436
-1202 273 -60 242 -58 1468 -62 l1127 -4 0 470 0 470 -1002 4 c-888 3 -1015 6
-1112 21 -251 40 -436 129 -549 266 -84 101 -129 233 -170 505 l-23 150 1375
5 1376 5 3 473 2 472 -1380 0 -1380 0 4 23 c3 12 8 51 11 87 3 36 9 75 12 88
l5 22 -128 -2 c-71 0 -232 -5 -359 -9z"/>
<path d="M13150 3965 l0 -1515 610 0 610 0 0 1500 0 1500 -40 0 c-97 0 -956
20 -1062 25 l-118 5 0 -1515z"/>
<path d="M19370 5449 c-179 -3 -407 -7 -507 -8 l-183 -1 0 -1495 0 -1495 610
0 610 0 0 1505 0 1505 -102 -2 c-57 -1 -249 -5 -428 -9z"/>
<path d="M15910 3940 l0 -1490 615 0 615 0 0 1490 0 1490 -615 0 -615 0 0
-1490z"/>
<path d="M20789 2187 c-24 -13 -57 -43 -74 -66 -27 -38 -30 -51 -30 -116 0
-65 3 -78 30 -117 47 -66 95 -89 180 -86 79 3 114 22 163 85 24 33 27 44 27
119 0 77 -2 85 -31 121 -64 81 -177 106 -265 60z"/>
<path d="M26450 2195 c-84 -38 -124 -107 -118 -205 4 -74 28 -117 90 -162 49
-34 158 -37 213 -6 95 56 133 183 83 278 -36 67 -94 103 -171 107 -41 2 -74
-2 -97 -12z"/>
<path d="M13368 1660 c-172 -20 -338 -84 -451 -174 -106 -86 -195 -231 -238
-391 -19 -67 -22 -108 -23 -255 -1 -151 2 -187 22 -265 96 -379 381 -576 831
-575 214 1 383 44 516 131 211 137 316 341 332 641 25 477 -211 801 -638 877
-86 15 -265 21 -351 11z m297 -355 c64 -21 132 -70 168 -122 102 -148 114
-481 23 -661 -29 -58 -102 -127 -162 -153 -94 -42 -285 -41 -381 1 -97 43
-176 149 -204 275 -19 85 -17 303 4 388 40 160 126 249 277 284 69 16 208 10
275 -12z"/>
<path d="M27676 1659 c-360 -38 -598 -232 -688 -560 -20 -74 -23 -106 -22
-269 0 -158 4 -197 22 -265 78 -284 262 -465 542 -536 108 -27 342 -37 462
-20 192 28 355 108 471 230 155 165 228 425 198 708 -44 422 -293 669 -722
713 -113 11 -148 11 -263 -1z m239 -340 c156 -29 251 -125 291 -296 22 -91 22
-295 0 -386 -42 -179 -152 -280 -323 -296 -337 -32 -499 150 -480 539 8 160
40 257 108 335 82 93 242 134 404 104z"/>
<path d="M11625 1613 c-153 -32 -302 -119 -386 -225 -51 -64 -110 -188 -135
-283 -16 -58 -19 -106 -18 -280 0 -200 1 -214 28 -300 62 -204 167 -331 341
-415 151 -72 160 -73 633 -77 l422 -4 -2 168 -3 168 -355 5 -355 5 -55 28
c-139 72 -208 195 -217 389 -9 177 25 294 114 389 56 60 116 93 198 108 34 6
187 11 367 11 l308 0 0 165 0 165 -407 -1 c-322 0 -423 -4 -478 -16z"/>
<path d="M14580 830 l0 -800 205 0 205 0 2 632 3 633 260 0 260 0 3 -633 2
-632 205 0 205 0 2 632 3 633 180 0 c164 -1 184 -3 220 -22 50 -26 80 -58 100
-105 13 -32 15 -114 15 -588 l0 -550 210 0 210 0 0 588 c0 640 -1 649 -58 756
-58 109 -199 217 -322 245 -29 7 -370 11 -977 11 l-933 0 0 -800z"/>
<path d="M17130 1037 c0 -645 1 -658 57 -755 40 -70 130 -153 204 -189 124
-61 140 -63 717 -63 l522 0 0 800 0 800 -210 0 -210 0 0 -630 0 -631 -264 3
-264 3 -43 30 c-23 17 -53 50 -66 74 l-23 44 0 554 0 553 -210 0 -210 0 0
-593z"/>
<path d="M18920 830 l0 -800 205 0 205 0 2 632 3 633 255 0 c242 0 257 -1 295
-22 50 -27 80 -58 100 -105 13 -32 15 -114 15 -588 l0 -550 210 0 210 0 0 580
c0 392 -4 596 -11 632 -35 162 -145 290 -311 360 -53 23 -56 23 -615 26 l-563
3 0 -801z"/>
<path d="M20680 830 l0 -800 205 0 205 0 0 800 0 800 -205 0 -205 0 0 -800z"/>
<path d="M21865 1613 c-261 -55 -445 -225 -514 -473 -34 -122 -47 -290 -33
-427 15 -143 33 -216 77 -308 86 -177 227 -290 432 -347 73 -21 104 -22 496
-26 l417 -3 0 170 0 170 -352 3 c-344 3 -354 4 -403 26 -101 46 -185 156 -216
282 -16 66 -16 236 0 304 40 168 154 281 307 306 33 6 195 10 362 10 l302 0 0
165 0 165 -402 -1 c-317 0 -418 -4 -473 -16z"/>
<path d="M23000 1470 l0 -160 448 0 447 0 50 -24 c90 -41 124 -100 128 -222
l2 -69 -420 -5 c-462 -6 -450 -4 -569 -74 -87 -51 -160 -161 -186 -277 -19
-84 -8 -259 19 -330 47 -117 145 -212 261 -252 64 -22 74 -22 688 -25 l622 -3
0 559 c0 355 -4 580 -11 618 -16 90 -71 196 -137 262 -70 71 -143 114 -242
141 -71 20 -99 21 -587 21 l-513 0 0 -160z m1080 -961 l0 -160 -317 3 c-298 3
-320 4 -357 24 -50 26 -76 74 -76 139 0 65 28 110 83 135 38 18 68 20 355 20
l312 0 0 -161z"/>
<path d="M25240 1615 c-278 -56 -462 -233 -532 -510 -20 -78 -22 -115 -22
-280 1 -219 15 -291 84 -432 94 -192 281 -319 519 -353 36 -5 236 -10 444 -10
l377 0 0 170 0 170 -333 0 c-370 0 -396 3 -484 63 -100 69 -160 197 -170 362
-13 227 82 412 245 477 55 22 71 23 400 26 l342 3 0 165 0 164 -402 -1 c-289
-1 -421 -5 -468 -14z"/>
<path d="M26330 830 l0 -800 205 0 205 0 0 800 0 800 -205 0 -205 0 0 -800z"/>
<path d="M28880 830 l0 -800 210 0 210 0 2 632 3 633 250 0 c249 0 251 0 300
-26 54 -27 89 -70 105 -128 6 -22 10 -244 10 -573 l0 -538 210 0 210 0 0 573
c0 633 -2 657 -62 769 -60 113 -174 203 -307 242 -47 14 -130 16 -598 16
l-543 0 0 -800z"/>
<path d="M31130 1614 c-185 -39 -328 -130 -421 -266 -105 -153 -152 -385 -130
-630 31 -325 168 -528 429 -634 115 -46 204 -54 613 -54 l379 0 0 159 0 160
-372 3 c-324 3 -379 6 -417 21 -101 39 -143 97 -165 223 l-13 74 468 0 469 0
0 160 0 160 -463 0 c-255 0 -466 2 -469 5 -9 10 12 117 34 166 11 27 38 64 59
83 68 62 99 66 506 66 l363 0 0 160 0 160 -402 -1 c-305 0 -419 -4 -468 -15z"/>
<path d="M32521 1614 c-242 -65 -375 -311 -317 -585 36 -166 137 -278 299
-332 56 -18 96 -21 402 -26 361 -6 372 -8 417 -58 24 -26 37 -96 28 -140 -13
-55 -41 -86 -96 -105 -44 -15 -105 -17 -556 -18 l-508 0 0 -160 0 -160 594 0
c326 0 615 4 642 9 208 40 339 182 366 397 31 244 -82 450 -290 527 -52 20
-84 22 -397 27 -320 5 -343 7 -387 27 -116 53 -112 226 7 279 11 5 256 11 545
14 l525 5 3 158 3 157 -613 -1 c-503 0 -623 -3 -667 -15z"/>
</g>
</svg>
